<mxfile host="app.diagrams.net" modified="2023-12-10T05:03:06.417Z" agent="Mozilla/5.0 (Windows NT 10.0; Win64; x64) AppleWebKit/537.36 (KHTML, like Gecko) Chrome/120.0.0.0 Safari/537.36" etag="3Hsfkr2Eo-s8tXim1-q9" version="22.1.7" type="google">
  <diagram name="Page-1" id="9BMTf9uxNBSuhy0oKDXC">
    <mxGraphModel grid="1" page="1" gridSize="10" guides="1" tooltips="1" connect="1" arrows="1" fold="1" pageScale="1" pageWidth="850" pageHeight="1100" math="0" shadow="0">
      <root>
        <mxCell id="0" />
        <mxCell id="1" parent="0" />
        <mxCell id="5DguZ6diYUzxBe4SPTUC-3" style="edgeStyle=orthogonalEdgeStyle;rounded=0;orthogonalLoop=1;jettySize=auto;html=1;entryX=0;entryY=0.5;entryDx=0;entryDy=0;fontSize=15;" edge="1" parent="1" source="5DguZ6diYUzxBe4SPTUC-1" target="5DguZ6diYUzxBe4SPTUC-2">
          <mxGeometry relative="1" as="geometry">
            <Array as="points">
              <mxPoint x="220" y="535" />
              <mxPoint x="220" y="190" />
            </Array>
          </mxGeometry>
        </mxCell>
        <mxCell id="5DguZ6diYUzxBe4SPTUC-6" style="edgeStyle=orthogonalEdgeStyle;rounded=0;orthogonalLoop=1;jettySize=auto;html=1;entryX=0;entryY=0.5;entryDx=0;entryDy=0;fontSize=15;" edge="1" parent="1" source="5DguZ6diYUzxBe4SPTUC-1" target="5DguZ6diYUzxBe4SPTUC-4">
          <mxGeometry relative="1" as="geometry">
            <Array as="points">
              <mxPoint x="220" y="535" />
              <mxPoint x="220" y="330" />
            </Array>
          </mxGeometry>
        </mxCell>
        <mxCell id="5DguZ6diYUzxBe4SPTUC-7" style="edgeStyle=orthogonalEdgeStyle;rounded=0;orthogonalLoop=1;jettySize=auto;html=1;entryX=0;entryY=0.5;entryDx=0;entryDy=0;fontSize=15;" edge="1" parent="1" source="5DguZ6diYUzxBe4SPTUC-1" target="5DguZ6diYUzxBe4SPTUC-5">
          <mxGeometry relative="1" as="geometry" />
        </mxCell>
        <mxCell id="5DguZ6diYUzxBe4SPTUC-10" style="edgeStyle=orthogonalEdgeStyle;rounded=0;orthogonalLoop=1;jettySize=auto;html=1;entryX=0;entryY=0.5;entryDx=0;entryDy=0;fontSize=15;" edge="1" parent="1" source="5DguZ6diYUzxBe4SPTUC-1" target="5DguZ6diYUzxBe4SPTUC-8">
          <mxGeometry relative="1" as="geometry">
            <Array as="points">
              <mxPoint x="220" y="535" />
              <mxPoint x="220" y="740" />
            </Array>
          </mxGeometry>
        </mxCell>
        <mxCell id="U-yuAumDxN-ldxdOwmOZ-2" style="edgeStyle=orthogonalEdgeStyle;rounded=0;orthogonalLoop=1;jettySize=auto;html=1;entryX=0;entryY=0.5;entryDx=0;entryDy=0;" edge="1" parent="1" source="5DguZ6diYUzxBe4SPTUC-1" target="U-yuAumDxN-ldxdOwmOZ-3">
          <mxGeometry relative="1" as="geometry">
            <mxPoint x="242" y="900" as="targetPoint" />
            <Array as="points">
              <mxPoint x="220" y="535" />
              <mxPoint x="220" y="1050" />
            </Array>
          </mxGeometry>
        </mxCell>
        <object label="Lập trình Website" id="5DguZ6diYUzxBe4SPTUC-1">
          <mxCell style="rounded=0;whiteSpace=wrap;html=1;fontSize=15;" vertex="1" parent="1">
            <mxGeometry x="40" y="510" width="150" height="50" as="geometry" />
          </mxCell>
        </object>
        <mxCell id="NJ3WDUA73edKRcBkF9gt-3" style="edgeStyle=orthogonalEdgeStyle;rounded=0;orthogonalLoop=1;jettySize=auto;html=1;entryX=0;entryY=0.5;entryDx=0;entryDy=0;fontSize=15;" edge="1" parent="1" source="5DguZ6diYUzxBe4SPTUC-2" target="NJ3WDUA73edKRcBkF9gt-1">
          <mxGeometry relative="1" as="geometry">
            <Array as="points">
              <mxPoint x="420" y="190" />
              <mxPoint x="420" y="120" />
            </Array>
          </mxGeometry>
        </mxCell>
        <mxCell id="NJ3WDUA73edKRcBkF9gt-4" style="edgeStyle=orthogonalEdgeStyle;rounded=0;orthogonalLoop=1;jettySize=auto;html=1;entryX=0;entryY=0.5;entryDx=0;entryDy=0;fontSize=15;" edge="1" parent="1" source="5DguZ6diYUzxBe4SPTUC-2" target="NJ3WDUA73edKRcBkF9gt-2">
          <mxGeometry relative="1" as="geometry">
            <Array as="points">
              <mxPoint x="420" y="190" />
              <mxPoint x="420" y="250" />
            </Array>
          </mxGeometry>
        </mxCell>
        <mxCell id="5DguZ6diYUzxBe4SPTUC-2" value="Ứng dụng" style="rounded=0;whiteSpace=wrap;html=1;fontSize=15;" vertex="1" parent="1">
          <mxGeometry x="242" y="160" width="130" height="60" as="geometry" />
        </mxCell>
        <mxCell id="5DguZ6diYUzxBe4SPTUC-4" value="Công việc:&lt;br style=&quot;font-size: 15px;&quot;&gt;FE, BE, BA, PM" style="rounded=0;whiteSpace=wrap;html=1;fontSize=15;" vertex="1" parent="1">
          <mxGeometry x="244" y="300" width="128" height="60" as="geometry" />
        </mxCell>
        <mxCell id="NJ3WDUA73edKRcBkF9gt-8" style="edgeStyle=orthogonalEdgeStyle;rounded=0;orthogonalLoop=1;jettySize=auto;html=1;entryX=0;entryY=0.5;entryDx=0;entryDy=0;fontSize=15;" edge="1" parent="1" target="NJ3WDUA73edKRcBkF9gt-6">
          <mxGeometry relative="1" as="geometry">
            <mxPoint x="367" y="540" as="sourcePoint" />
            <mxPoint x="485" y="450" as="targetPoint" />
            <Array as="points">
              <mxPoint x="420" y="540" />
              <mxPoint x="420" y="460" />
            </Array>
          </mxGeometry>
        </mxCell>
        <mxCell id="NJ3WDUA73edKRcBkF9gt-9" style="edgeStyle=orthogonalEdgeStyle;rounded=0;orthogonalLoop=1;jettySize=auto;html=1;entryX=0;entryY=0.5;entryDx=0;entryDy=0;fontSize=15;" edge="1" parent="1" target="NJ3WDUA73edKRcBkF9gt-7">
          <mxGeometry relative="1" as="geometry">
            <mxPoint x="367" y="545" as="sourcePoint" />
            <mxPoint x="485" y="630" as="targetPoint" />
            <Array as="points">
              <mxPoint x="367" y="540" />
              <mxPoint x="420" y="540" />
              <mxPoint x="420" y="595" />
            </Array>
          </mxGeometry>
        </mxCell>
        <mxCell id="5DguZ6diYUzxBe4SPTUC-5" value="Thành phầm lập trình Web" style="rounded=0;whiteSpace=wrap;html=1;fontSize=15;" vertex="1" parent="1">
          <mxGeometry x="244" y="505" width="128" height="60" as="geometry" />
        </mxCell>
        <mxCell id="5DguZ6diYUzxBe4SPTUC-8" value="Cài đặt môi trường&lt;br style=&quot;font-size: 15px;&quot;&gt;VS code và các thư viện phụ thuộc" style="rounded=0;whiteSpace=wrap;html=1;fontSize=15;" vertex="1" parent="1">
          <mxGeometry x="242" y="710" width="240" height="60" as="geometry" />
        </mxCell>
        <mxCell id="NJ3WDUA73edKRcBkF9gt-1" value="Thương mại điện tử, y tế, bảo hiểm, ..." style="rounded=0;whiteSpace=wrap;html=1;fontSize=15;" vertex="1" parent="1">
          <mxGeometry x="460" y="90" width="160" height="60" as="geometry" />
        </mxCell>
        <mxCell id="NJ3WDUA73edKRcBkF9gt-2" value="Web application mobile" style="rounded=0;whiteSpace=wrap;html=1;fontSize=15;" vertex="1" parent="1">
          <mxGeometry x="460" y="220" width="160" height="60" as="geometry" />
        </mxCell>
        <mxCell id="yjy02ePxufmEbk2YGoJP-5" style="edgeStyle=none;curved=1;rounded=0;orthogonalLoop=1;jettySize=auto;html=1;entryX=0;entryY=0.5;entryDx=0;entryDy=0;fontSize=12;startSize=8;endSize=8;" edge="1" parent="1" source="NJ3WDUA73edKRcBkF9gt-6" target="yjy02ePxufmEbk2YGoJP-2">
          <mxGeometry relative="1" as="geometry" />
        </mxCell>
        <mxCell id="yjy02ePxufmEbk2YGoJP-7" style="edgeStyle=none;curved=1;rounded=0;orthogonalLoop=1;jettySize=auto;html=1;entryX=0;entryY=0.5;entryDx=0;entryDy=0;fontSize=12;startSize=8;endSize=8;" edge="1" parent="1" source="NJ3WDUA73edKRcBkF9gt-6" target="yjy02ePxufmEbk2YGoJP-3">
          <mxGeometry relative="1" as="geometry" />
        </mxCell>
        <mxCell id="NJ3WDUA73edKRcBkF9gt-6" value="Front-end" style="rounded=0;whiteSpace=wrap;html=1;fontSize=15;" vertex="1" parent="1">
          <mxGeometry x="460" y="430" width="150" height="60" as="geometry" />
        </mxCell>
        <mxCell id="NJ3WDUA73edKRcBkF9gt-7" value="Back-end" style="rounded=0;whiteSpace=wrap;html=1;fontSize=15;" vertex="1" parent="1">
          <mxGeometry x="460" y="565" width="150" height="60" as="geometry" />
        </mxCell>
        <mxCell id="yjy02ePxufmEbk2YGoJP-2" value="Static webite" style="rounded=0;whiteSpace=wrap;html=1;fontSize=16;" vertex="1" parent="1">
          <mxGeometry x="680" y="380" width="120" height="60" as="geometry" />
        </mxCell>
        <mxCell id="yjy02ePxufmEbk2YGoJP-3" value="Html, Css, Javascript" style="rounded=0;whiteSpace=wrap;html=1;fontSize=16;" vertex="1" parent="1">
          <mxGeometry x="680" y="480" width="120" height="60" as="geometry" />
        </mxCell>
        <mxCell id="U-yuAumDxN-ldxdOwmOZ-11" style="edgeStyle=orthogonalEdgeStyle;rounded=0;orthogonalLoop=1;jettySize=auto;html=1;entryX=0;entryY=0.5;entryDx=0;entryDy=0;" edge="1" parent="1" source="U-yuAumDxN-ldxdOwmOZ-3" target="U-yuAumDxN-ldxdOwmOZ-4">
          <mxGeometry relative="1" as="geometry" />
        </mxCell>
        <mxCell id="U-yuAumDxN-ldxdOwmOZ-12" style="edgeStyle=orthogonalEdgeStyle;rounded=0;orthogonalLoop=1;jettySize=auto;html=1;" edge="1" parent="1" source="U-yuAumDxN-ldxdOwmOZ-3" target="U-yuAumDxN-ldxdOwmOZ-5">
          <mxGeometry relative="1" as="geometry" />
        </mxCell>
        <mxCell id="U-yuAumDxN-ldxdOwmOZ-13" style="edgeStyle=orthogonalEdgeStyle;rounded=0;orthogonalLoop=1;jettySize=auto;html=1;entryX=0;entryY=0.5;entryDx=0;entryDy=0;" edge="1" parent="1" source="U-yuAumDxN-ldxdOwmOZ-3" target="U-yuAumDxN-ldxdOwmOZ-7">
          <mxGeometry relative="1" as="geometry" />
        </mxCell>
        <mxCell id="U-yuAumDxN-ldxdOwmOZ-14" style="edgeStyle=orthogonalEdgeStyle;rounded=0;orthogonalLoop=1;jettySize=auto;html=1;entryX=0;entryY=0.5;entryDx=0;entryDy=0;" edge="1" parent="1" source="U-yuAumDxN-ldxdOwmOZ-3" target="U-yuAumDxN-ldxdOwmOZ-6">
          <mxGeometry relative="1" as="geometry" />
        </mxCell>
        <mxCell id="U-yuAumDxN-ldxdOwmOZ-3" value="Nội dung" style="rounded=0;whiteSpace=wrap;html=1;fontSize=15;" vertex="1" parent="1">
          <mxGeometry x="242" y="1020" width="128" height="60" as="geometry" />
        </mxCell>
        <mxCell id="U-yuAumDxN-ldxdOwmOZ-4" value="HTML cơ bản" style="rounded=0;whiteSpace=wrap;html=1;fontSize=15;" vertex="1" parent="1">
          <mxGeometry x="460" y="910" width="150" height="60" as="geometry" />
        </mxCell>
        <mxCell id="U-yuAumDxN-ldxdOwmOZ-5" value="CSS cơ bản" style="rounded=0;whiteSpace=wrap;html=1;fontSize=15;" vertex="1" parent="1">
          <mxGeometry x="460" y="1020" width="150" height="60" as="geometry" />
        </mxCell>
        <mxCell id="U-yuAumDxN-ldxdOwmOZ-6" value="Deploy website lên host free" style="rounded=0;whiteSpace=wrap;html=1;fontSize=15;" vertex="1" parent="1">
          <mxGeometry x="460" y="1250" width="150" height="60" as="geometry" />
        </mxCell>
        <mxCell id="U-yuAumDxN-ldxdOwmOZ-7" value="Layout website" style="rounded=0;whiteSpace=wrap;html=1;fontSize=15;" vertex="1" parent="1">
          <mxGeometry x="460" y="1130" width="150" height="60" as="geometry" />
        </mxCell>
      </root>
    </mxGraphModel>
  </diagram>
</mxfile>
